<?xml version="1.0" encoding="UTF-8" standalone="no"?>
<!-- Created with Inkscape (http://www.inkscape.org/) -->

<svg
   xmlns:dc="http://purl.org/dc/elements/1.1/"
   xmlns:cc="http://creativecommons.org/ns#"
   xmlns:rdf="http://www.w3.org/1999/02/22-rdf-syntax-ns#"
   xmlns:svg="http://www.w3.org/2000/svg"
   xmlns="http://www.w3.org/2000/svg"
   xmlns:sodipodi="http://sodipodi.sourceforge.net/DTD/sodipodi-0.dtd"
   xmlns:inkscape="http://www.inkscape.org/namespaces/inkscape"
   width="55.096008mm"
   height="81.243866mm"
   viewBox="0 0 55.096008 81.243866"
   version="1.1"
   id="svg1019"
   inkscape:version="0.92.3 (2405546, 2018-03-11)"
   sodipodi:docname="Ingeniero.svg">
  <defs
     id="defs1013" />
  <sodipodi:namedview
     id="base"
     pagecolor="#ffffff"
     bordercolor="#666666"
     borderopacity="1.0"
     inkscape:pageopacity="0.0"
     inkscape:pageshadow="2"
     inkscape:zoom="0.7"
     inkscape:cx="-340.30544"
     inkscape:cy="347.59094"
     inkscape:document-units="mm"
     inkscape:current-layer="layer1"
     showgrid="false"
     inkscape:window-width="1920"
     inkscape:window-height="1017"
     inkscape:window-x="-8"
     inkscape:window-y="-8"
     inkscape:window-maximized="1"
     fit-margin-top="0"
     fit-margin-left="0"
     fit-margin-right="0"
     fit-margin-bottom="0" />
  <metadata
     id="metadata1016">
    <rdf:RDF>
      <cc:Work
         rdf:about="">
        <dc:format>image/svg+xml</dc:format>
        <dc:type
           rdf:resource="http://purl.org/dc/dcmitype/StillImage" />
        <dc:title></dc:title>
      </cc:Work>
    </rdf:RDF>
  </metadata>
  <g
     inkscape:label="Capa 1"
     inkscape:groupmode="layer"
     id="layer1"
     transform="translate(-68.878699,-96.020811)">
    <g
       id="g929"
       transform="matrix(1.9821556,0,0,1.9821556,493.50675,51.410052)">
      <g
         transform="translate(-281.21429,-45.357142)"
         inkscape:label="Capa 1"
         id="layer1-8">
        <g
           id="layer1-6"
           inkscape:label="Capa 1"
           transform="translate(-9.2651922,23.493415)">
          <path
             sodipodi:nodetypes="cccssssc"
             inkscape:connector-curvature="0"
             id="path4946"
             d="m 81.488485,55.165854 8.62256,0.07087 0.0709,11.835379 c 0,0 -2.78142,-0.452531 -3.97937,-1.136597 -0.93868,-0.536016 -1.68561,-1.381483 -2.35168,-2.232824 -0.56185,-0.718134 -1.00104,-1.53657 -1.35084,-2.378612 -0.42684,-1.027485 -0.72105,-2.116878 -0.89342,-3.216061 -0.15206,-0.969658 -0.11815,-2.942155 -0.11815,-2.942155 z"
             style="fill:#ffccaa;stroke:none;stroke-width:0.065;stroke-linecap:butt;stroke-linejoin:miter;stroke-miterlimit:4;stroke-dasharray:none;stroke-opacity:1" />
          <path
             sodipodi:nodetypes="cccssssc"
             inkscape:connector-curvature="0"
             id="path4946-6"
             d="m 98.828105,55.165854 -8.71706,0.07087 -0.0717,11.835379 c 0,0 2.81191,-0.452531 4.02299,-1.136597 0.94897,-0.536016 1.70408,-1.381483 2.37745,-2.232824 0.56801,-0.718134 1.01201,-1.53657 1.36565,-2.378612 0.43152,-1.027485 0.72895,-2.116878 0.90321,-3.216061 0.15373,-0.969658 0.11944,-2.942155 0.11944,-2.942155 z"
             style="fill:#ffb380;stroke:none;stroke-width:0.06535523;stroke-linecap:butt;stroke-linejoin:miter;stroke-miterlimit:4;stroke-dasharray:none;stroke-opacity:1" />
          <ellipse
             style="fill:none;stroke:none;stroke-width:0.20489721;stroke-opacity:1"
             ry="10.613177"
             rx="8.7232981"
             cy="56.441532"
             cx="90.181953"
             id="path3731-4" />
          <path
             sodipodi:nodetypes="cssssscc"
             inkscape:connector-curvature="0"
             id="path4651-25"
             d="m 81.511595,56.045498 c -0.75285,0.175939 -0.992,0.817158 -1.26953,1.169304 -0.34469,0.437359 -0.33409,1.302939 -0.33409,1.302939 0.0843,0.440369 0.1174,1.03801 0.33409,1.503392 0.20119,0.432108 0.53296,0.797473 0.86862,1.135895 0.17883,0.180301 0.51761,0.260786 0.7684,0.300679 0.29222,0.04648 0.66818,-0.133636 0.66818,-0.133636 -0.85889,-1.81089 -1.06287,-3.556291 -1.03567,-5.278573 z"
             style="fill:#ffccaa;stroke:none;stroke-width:0.26499999;stroke-linecap:butt;stroke-linejoin:miter;stroke-miterlimit:4;stroke-dasharray:none;stroke-opacity:1" />
          <path
             sodipodi:nodetypes="cssccccssccccc"
             inkscape:connector-curvature="0"
             id="path4683-7"
             d="m 79.929335,55.2131 c -0.0317,0.07392 -0.23782,-1.277315 0.4016,-3.000186 0.23159,-0.624026 0.52448,-1.228962 0.87407,-1.795385 0.35403,-0.573632 1.41741,-1.748141 1.41741,-1.748141 l -0.68508,-0.68508 2.33872,-2.007999 0.68509,0.755951 c 0,0 0.65802,-0.384178 1.1103,-0.590586 0.31949,-0.145806 0.65154,-0.268967 0.99219,-0.354354 0.78815,-0.197556 1.37016,-0.354352 1.37016,-0.354352 l 0.0473,-0.992187 1.65365,-0.07087 0.0236,10.866816 z"
             style="fill:#ffcc00;stroke:none;stroke-width:0.26458332px;stroke-linecap:butt;stroke-linejoin:miter;stroke-opacity:1" />
          <path
             sodipodi:nodetypes="cssccccssccccc"
             inkscape:connector-curvature="0"
             id="path4683-6-5"
             d="m 100.34006,55.2131 c 0.0317,0.07392 0.23781,-1.277315 -0.401605,-3.000186 -0.2316,-0.624026 -0.52449,-1.228962 -0.87407,-1.795385 -0.35404,-0.573632 -1.41741,-1.748141 -1.41741,-1.748141 l 0.68508,-0.68508 -2.33873,-2.007999 -0.68508,0.755951 c 0,0 -0.65802,-0.384178 -1.11031,-0.590586 -0.31949,-0.145806 -0.65153,-0.268967 -0.99218,-0.354354 -0.78815,-0.197556 -1.37017,-0.354352 -1.37017,-0.354352 l -0.0473,-0.992187 -1.65364,-0.07087 -0.0236,10.866816 z"
             style="fill:#d4aa00;stroke:none;stroke-width:0.26458332px;stroke-linecap:butt;stroke-linejoin:miter;stroke-opacity:1" />
          <path
             sodipodi:nodetypes="csssccc"
             inkscape:connector-curvature="0"
             id="path4700-2"
             d="m 80.078195,55.189476 c 0,0 1.01656,-0.955685 2.1775,-1.488279 0.52164,-0.239305 1.6618,-0.510935 2.59343,-0.732329 1.0596,-0.251806 2.02895,-0.422054 3.08275,-0.496095 0.92225,-0.0648 2.17751,-0.118117 2.17751,-0.118117 l 0.049,2.882069 z"
             style="fill:#ff7f2a;stroke:none;stroke-width:0.26926157px;stroke-linecap:butt;stroke-linejoin:miter;stroke-opacity:1" />
          <path
             sodipodi:nodetypes="csssccc"
             inkscape:connector-curvature="0"
             id="path4700-6-0"
             d="m 100.14057,55.189476 c 0,0 -1.016555,-0.955685 -2.177505,-1.488279 -0.52164,-0.239305 -1.6618,-0.510935 -2.59343,-0.732329 -1.0596,-0.251806 -2.02895,-0.422054 -3.08275,-0.496095 -0.92224,-0.0648 -2.1775,-0.118117 -2.1775,-0.118117 l -0.0489,2.882069 z"
             style="fill:#aa4400;stroke:none;stroke-width:0.26926157px;stroke-linecap:butt;stroke-linejoin:miter;stroke-opacity:1" />
          <path
             sodipodi:nodetypes="cssssscc"
             inkscape:connector-curvature="0"
             id="path4651-2-1"
             d="m 98.798955,56.057951 c 0.75285,0.175939 0.992,0.817158 1.269535,1.169304 0.34468,0.437359 0.33408,1.302939 0.33408,1.302939 -0.0843,0.440369 -0.1174,1.038009 -0.33408,1.503392 -0.201205,0.432108 -0.532975,0.797473 -0.868635,1.135895 -0.17883,0.180301 -0.51761,0.260786 -0.7684,0.300679 -0.29222,0.04648 -0.66817,-0.133636 -0.66817,-0.133636 0.85888,-1.81089 1.06287,-3.556291 1.03567,-5.278573 z"
             style="fill:#ffb380;stroke:none;stroke-width:0.26458332px;stroke-linecap:butt;stroke-linejoin:miter;stroke-opacity:1" />
          <path
             sodipodi:nodetypes="csssssccssssscc"
             inkscape:connector-curvature="0"
             id="path4732-5"
             d="m 83.968954,55.165854 c 0,0 -0.694499,0.646728 -0.921319,1.063059 -0.32022,0.587764 -0.37609,1.318607 -0.3071,1.984375 0.0737,0.711385 0.41573,1.378908 0.75595,2.007999 0.62186,1.14988 1.06464,2.78439 2.3151,3.165549 0.5528,0.1685 1.05879,-0.503039 1.63002,-0.590587 0.89597,-0.137316 2.71671,0.118118 2.71671,0.118118 l 0.0236,4.157737 c 0,0 -1.83047,-0.13679 -2.66946,-0.47247 -1.01792,-0.40727 -1.93471,-1.07537 -2.74033,-1.81901 -0.72114,-0.66567 -1.35292,-1.451431 -1.81901,-2.315104 -0.58775,-1.089128 -0.90266,-2.314048 -1.18117,-3.519903 -0.15013,-0.649994 -0.21208,-1.318983 -0.25986,-1.984375 -0.0429,-0.596977 -0.0236,-1.795388 -0.0236,-1.795388 z"
             style="fill:#6c5353;stroke:none;stroke-width:0.065;stroke-linecap:butt;stroke-linejoin:miter;stroke-miterlimit:4;stroke-dasharray:none;stroke-opacity:1" />
          <path
             sodipodi:nodetypes="csssssccssssscc"
             inkscape:connector-curvature="0"
             id="path4732-7-4"
             d="m 96.3713,55.189478 c 0,0 0.670875,0.623104 0.897695,1.039435 0.32022,0.587764 0.37609,1.318607 0.3071,1.984375 -0.0737,0.711385 -0.41573,1.378908 -0.75595,2.007999 -0.62186,1.14988 -1.06464,2.78439 -2.31511,3.165549 -0.55279,0.1685 -1.05878,-0.503039 -1.63002,-0.590587 -0.89596,-0.137316 -2.7167,0.118118 -2.7167,0.118118 l -0.0236,4.157737 c 0,0 1.83047,-0.13679 2.66946,-0.47247 1.01791,-0.40727 1.93471,-1.07537 2.74032,-1.81901 0.72115,-0.66567 1.35293,-1.451431 1.81901,-2.315104 0.58776,-1.089128 0.90267,-2.314048 1.18118,-3.519903 0.15013,-0.649994 0.21208,-1.318983 0.25986,-1.984375 0.0429,-0.596977 0.0236,-1.795388 0.0236,-1.795388 z"
             style="fill:#483737;stroke:none;stroke-width:0.065;stroke-linecap:butt;stroke-linejoin:miter;stroke-miterlimit:4;stroke-dasharray:none;stroke-opacity:1" />
          <ellipse
             ry="1.6063988"
             rx="1.5591518"
             cy="58.567646"
             cx="86.165932"
             id="path4749-6"
             style="fill:#cccccc;fill-opacity:1;stroke:none;stroke-width:0.26458332;stroke-opacity:1" />
          <rect
             y="58.71809"
             x="87.662086"
             height="0.31415769"
             width="2.4883597"
             id="rect4767-2"
             style="fill:#000000;fill-opacity:1;stroke:none;stroke-width:0.15503094;stroke-opacity:1" />
          <path
             sodipodi:nodetypes="ccccc"
             inkscape:connector-curvature="0"
             id="path4787-5"
             d="m 84.654035,58.461721 -3.16555,-0.636677 0.11812,0.282967 3.02381,0.664974 z"
             style="fill:#000000;fill-opacity:1;stroke:none;stroke-width:0.20475915px;stroke-linecap:butt;stroke-linejoin:miter;stroke-opacity:1" />
          <ellipse
             transform="scale(-1,1)"
             ry="1.6063988"
             rx="1.5591518"
             cy="58.567646"
             cx="-94.101646"
             id="path4749-7-4"
             style="fill:#b3b3b3;fill-opacity:1;stroke:none;stroke-width:0.26458332;stroke-opacity:1" />
          <path
             sodipodi:nodetypes="ccccc"
             inkscape:connector-curvature="0"
             id="path4787-0-7"
             d="m 95.613565,58.46172 3.16555,-0.636677 -0.11812,0.282967 -3.02381,0.664974 z"
             style="fill:#000000;fill-opacity:1;stroke:none;stroke-width:0.20475915px;stroke-linecap:butt;stroke-linejoin:miter;stroke-opacity:1" />
          <path
             sodipodi:nodetypes="ccccccccc"
             inkscape:connector-curvature="0"
             id="path4542-9"
             d="m 90.152095,70.251084 -0.0668,15.100732 -13.8312,-0.0668 0.13363,-11.358959 c 0.0339,-1.703372 0.94796,-2.526541 2.40543,-2.80633 l 4.40995,-1.069081 1.5368,-0.13363 0.86862,-1.40317 z"
             style="fill:#2c5aa0;fill-opacity:1;stroke:none;stroke-width:0.26458332px;stroke-linecap:butt;stroke-linejoin:miter;stroke-opacity:1" />
          <path
             sodipodi:nodetypes="ccccc"
             inkscape:connector-curvature="0"
             id="path4544-3"
             d="m 84.739905,69.917004 2.07132,4.209491 3.34087,-3.875411 -4.54357,-1.73725 z"
             style="fill:#cccccc;fill-opacity:1;stroke:none;stroke-width:0.26458332px;stroke-linecap:butt;stroke-linejoin:miter;stroke-opacity:1" />
          <path
             sodipodi:nodetypes="ccccc"
             inkscape:connector-curvature="0"
             id="path4546-7"
             d="m 90.218895,85.351816 -0.1016,-15.100732 -3.30609,3.875411 1.62181,11.231049 z"
             style="fill:#e6e6e6;fill-opacity:1;stroke:none;stroke-width:0.26458332px;stroke-linecap:butt;stroke-linejoin:miter;stroke-opacity:1" />
          <path
             sodipodi:nodetypes="ccccccccc"
             inkscape:connector-curvature="0"
             id="path4542-7-8"
             d="m 90.152095,70.251084 0.0668,15.100732 13.831205,-0.0668 -0.13363,-11.358959 c -0.0339,-1.703372 -0.94796,-2.526541 -2.40543,-2.80633 l -4.409955,-1.069081 -1.5368,-0.13363 -0.86862,-1.40317 z"
             style="fill:#162d50;fill-opacity:1;stroke:none;stroke-width:0.26458332px;stroke-linecap:butt;stroke-linejoin:miter;stroke-opacity:1" />
          <path
             sodipodi:nodetypes="ccccc"
             inkscape:connector-curvature="0"
             id="path4544-1-4"
             d="m 95.564285,69.917004 -2.07132,4.209491 -3.37567,-3.875411 4.57837,-1.73725 z"
             style="fill:#999999;fill-opacity:1;stroke:none;stroke-width:0.26458332px;stroke-linecap:butt;stroke-linejoin:miter;stroke-opacity:1" />
          <path
             sodipodi:nodetypes="ccccc"
             inkscape:connector-curvature="0"
             id="path4546-5-3"
             d="m 90.085295,85.351816 0.032,-15.100732 3.37567,3.875411 -1.47193,11.19191 z"
             style="fill:#cccccc;fill-opacity:1;stroke:none;stroke-width:0.26458332px;stroke-linecap:butt;stroke-linejoin:miter;stroke-opacity:1" />
          <path
             inkscape:connector-curvature="0"
             id="path4581-7"
             d="m 97.101085,70.050644 -0.0882,1.757389 -1.26953,0.400902 1.13589,0.467728 -4.85821,12.641742 1.47197,-11.19191 2.07132,-4.209481 z"
             style="fill:#0b1728;fill-opacity:1;stroke:none;stroke-width:0.26458332px;stroke-linecap:butt;stroke-linejoin:miter;stroke-opacity:1" />
          <path
             inkscape:connector-curvature="0"
             id="path4581-5-4"
             d="m 83.203145,70.050644 0.0882,1.757389 1.26953,0.400902 -1.13589,0.467728 4.85821,12.641742 -1.47197,-11.19191 -2.07132,-4.209481 z"
             style="fill:#214478;fill-opacity:1;stroke:none;stroke-width:0.26458332px;stroke-linecap:butt;stroke-linejoin:miter;stroke-opacity:1" />
          <path
             sodipodi:nodetypes="ccccc"
             inkscape:connector-curvature="0"
             id="path4628-46"
             d="m 90.152095,70.251084 -0.0174,-3.17898 c -1.31667,0.0711 -3.16521,-0.559335 -3.93215,-1.136595 l 0.0513,2.774595 z"
             style="fill:#ffccaa;stroke:none;stroke-width:0.26458332px;stroke-linecap:butt;stroke-linejoin:miter;stroke-opacity:1" />
          <path
             sodipodi:nodetypes="ccccc"
             inkscape:connector-curvature="0"
             id="path4628-4-4"
             d="m 90.117315,70.251084 0.0174,-3.17898 c 1.31667,0.0711 3.09433,-0.44122 3.86127,-1.01848 l 0.0195,2.65648 z"
             style="fill:#ffb380;stroke:none;stroke-width:0.26458332px;stroke-linecap:butt;stroke-linejoin:miter;stroke-opacity:1" />
          <rect
             y="58.71809"
             x="90.046455"
             height="0.31415769"
             width="2.4883597"
             id="rect4767-2-1"
             style="fill:#000000;fill-opacity:1;stroke:none;stroke-width:0.15503094;stroke-opacity:1" />
        </g>
      </g>
    </g>
  </g>
</svg>
