<?xml version="1.0" encoding="UTF-8" standalone="no"?>
<!-- Created with Inkscape (http://www.inkscape.org/) -->

<svg
   xmlns:dc="http://purl.org/dc/elements/1.1/"
   xmlns:cc="http://creativecommons.org/ns#"
   xmlns:rdf="http://www.w3.org/1999/02/22-rdf-syntax-ns#"
   xmlns:svg="http://www.w3.org/2000/svg"
   xmlns="http://www.w3.org/2000/svg"
   xmlns:sodipodi="http://sodipodi.sourceforge.net/DTD/sodipodi-0.dtd"
   xmlns:inkscape="http://www.inkscape.org/namespaces/inkscape"
   width="100mm"
   height="100mm"
   viewBox="0 0 100 100"
   version="1.1"
   id="svg1682"
   inkscape:version="0.92.3 (2405546, 2018-03-11)"
   sodipodi:docname="AtencionCliente_circulo.svg">
  <defs
     id="defs1676" />
  <sodipodi:namedview
     id="base"
     pagecolor="#ffffff"
     bordercolor="#666666"
     borderopacity="1.0"
     inkscape:pageopacity="0.0"
     inkscape:pageshadow="2"
     inkscape:zoom="0.7"
     inkscape:cx="-352.68411"
     inkscape:cy="191.93806"
     inkscape:document-units="mm"
     inkscape:current-layer="layer1"
     showgrid="false"
     inkscape:window-width="1920"
     inkscape:window-height="1017"
     inkscape:window-x="-8"
     inkscape:window-y="-8"
     inkscape:window-maximized="1"
     fit-margin-top="0"
     fit-margin-left="0"
     fit-margin-right="0"
     fit-margin-bottom="0" />
  <metadata
     id="metadata1679">
    <rdf:RDF>
      <cc:Work
         rdf:about="">
        <dc:format>image/svg+xml</dc:format>
        <dc:type
           rdf:resource="http://purl.org/dc/dcmitype/StillImage" />
        <dc:title></dc:title>
      </cc:Work>
    </rdf:RDF>
  </metadata>
  <g
     inkscape:label="Capa 1"
     inkscape:groupmode="layer"
     id="layer1"
     transform="translate(-56.967262,-85.982147)">
    <circle
       style="opacity:1;fill:#e6e6e6;fill-opacity:1;stroke:none;stroke-width:0.75362647;stroke-miterlimit:4;stroke-dasharray:none;stroke-opacity:1"
       id="path1564"
       cx="106.96726"
       cy="135.98215"
       r="50" />
    <g
       id="g2387"
       transform="matrix(2.0562108,0,0,2.0562108,-180.58616,-149.95278)">
      <path
         inkscape:export-ydpi="619.25409"
         inkscape:export-xdpi="619.25409"
         sodipodi:nodetypes="ccccccccc"
         inkscape:connector-curvature="0"
         id="path4542-91-1-5-8"
         d="m 139.92619,142.33127 -0.0668,15.10073 -13.8312,-0.0668 0.13363,-11.35897 c 0.0339,-1.70336 0.94796,-2.52653 2.40543,-2.80632 l 4.40996,-1.06908 1.5368,-0.13363 0.86862,-1.40317 z"
         style="fill:#9955ff;fill-opacity:1;stroke:none;stroke-width:0.26458332px;stroke-linecap:butt;stroke-linejoin:miter;stroke-opacity:1" />
      <path
         inkscape:export-ydpi="619.25409"
         inkscape:export-xdpi="619.25409"
         sodipodi:nodetypes="ccccc"
         inkscape:connector-curvature="0"
         id="path4544-2-9-0-9"
         d="m 134.51401,141.99719 2.07131,4.20949 3.34087,-3.87541 -4.54356,-1.73725 z"
         style="fill:#e6e6e6;fill-opacity:1;stroke:none;stroke-width:0.26458332px;stroke-linecap:butt;stroke-linejoin:miter;stroke-opacity:1" />
      <path
         inkscape:export-ydpi="619.25409"
         inkscape:export-xdpi="619.25409"
         sodipodi:nodetypes="ccccc"
         inkscape:connector-curvature="0"
         id="path4546-72-3-2-3"
         d="m 139.99299,157.432 -0.10158,-15.10073 -3.30609,3.87541 0.21425,11.21113 z"
         style="fill:#ececec;fill-opacity:1;stroke:none;stroke-width:0.26458332px;stroke-linecap:butt;stroke-linejoin:miter;stroke-opacity:1" />
      <path
         inkscape:export-ydpi="619.25409"
         inkscape:export-xdpi="619.25409"
         sodipodi:nodetypes="cccccccc"
         inkscape:connector-curvature="0"
         id="path4581-5-8-1-0-3"
         d="m 132.97725,142.13083 0.0882,1.75739 1.26953,0.4009 -3.44109,0.90203 5.90568,12.22666 -0.21425,-11.21113 -2.07131,-4.20948 z"
         style="fill:#7137c8;fill-opacity:1;stroke:none;stroke-width:0.26458332px;stroke-linecap:butt;stroke-linejoin:miter;stroke-opacity:1" />
      <path
         inkscape:export-ydpi="619.25409"
         inkscape:export-xdpi="619.25409"
         sodipodi:nodetypes="ccccc"
         inkscape:connector-curvature="0"
         id="path4628-0-1-2-6-5"
         d="m 139.92619,142.37852 -0.0174,-3.17898 c -1.31667,0.0711 -3.14159,-0.7247 -3.90852,-1.30196 l 0.0277,2.93996 z"
         style="fill:#ffccaa;fill-opacity:1;stroke:none;stroke-width:0.26458332px;stroke-linecap:butt;stroke-linejoin:miter;stroke-opacity:1" />
      <path
         inkscape:export-ydpi="619.25409"
         inkscape:export-xdpi="619.25409"
         sodipodi:nodetypes="ccccc"
         inkscape:connector-curvature="0"
         id="path4628-4-8-5-9-4-5"
         d="m 139.70242,142.37852 0.0174,-3.17898 c 1.31668,0.0711 3.09434,-0.44122 3.86128,-1.01848 l 0.0195,2.65648 z"
         style="fill:#ffb380;fill-opacity:1;stroke:none;stroke-width:0.26458332px;stroke-linecap:butt;stroke-linejoin:miter;stroke-opacity:1" />
      <path
         inkscape:export-ydpi="619.25409"
         inkscape:export-xdpi="619.25409"
         sodipodi:nodetypes="cccccccccccc"
         inkscape:connector-curvature="0"
         id="path1027-7-1-2"
         d="m 139.89421,139.8232 -1.92145,-0.30995 -1.99261,-1.146 -2.31294,-2.6053 -1.2391,-2.28342 -0.79538,-3.00011 -0.22474,-2.44363 3.00016,-1.1291 2.84373,-0.70984 1.58435,-0.22162 1.05312,0.0342 0.005,13.81479"
         style="fill:#ffccaa;fill-opacity:1;stroke:none;stroke-width:0.27999023px;stroke-linecap:butt;stroke-linejoin:miter;stroke-opacity:1" />
      <path
         inkscape:export-ydpi="619.25409"
         inkscape:export-xdpi="619.25409"
         sodipodi:nodetypes="cccccccccccc"
         inkscape:connector-curvature="0"
         id="path1027-4-3-4-1"
         d="m 140.40522,139.82317 1.92145,-0.30996 1.99261,-1.14599 2.31293,-2.6053 1.23911,-2.28343 0.44053,-3.00007 0.22473,-2.44363 -3.00015,-1.1291 -2.84374,-0.70984 -1.58434,-0.22162 -1.40798,0.0342 0.005,13.81476"
         style="fill:#ffb380;fill-opacity:1;stroke:none;stroke-width:0.27999023px;stroke-linecap:butt;stroke-linejoin:miter;stroke-opacity:1" />
      <path
         inkscape:export-ydpi="619.25409"
         inkscape:export-xdpi="619.25409"
         sodipodi:nodetypes="ccccccccccccccccccccccccccccccccccccccccccccccccccccccccc"
         inkscape:connector-curvature="0"
         id="path3895"
         d="m 130.9784,142.6846 1.97262,-0.46744 1.53676,-0.13363 0.86862,-1.40318 0.64534,0.24352 -0.0277,-2.93996 -2.30969,-2.23525 -1.09562,-2.04191 -0.82193,-1.94679 -0.11407,-0.73601 1.31678,-1.80305 0.83522,-1.10249 1.40316,-1.13589 1.36976,-0.46772 1.23633,-0.13415 2.00431,1.33686 1.70385,1.26953 1.70384,0.80181 1.5368,0.43431 1.13589,0.33409 0.56795,0.83522 0.2785,1.79175 1.15807,-1.22381 0.90297,-1.13854 -0.91484,2.65662 -1.23911,2.28343 -1.30429,1.20742 -0.83778,1.10904 -0.90904,0.10268 -0.97269,2.98721 0.99219,-0.33073 1.71159,1.24599 1.53677,0.13363 1.15856,0.26728 0.91135,0.20016 1.46598,-5.88509 0.46772,-3.60813 -0.33408,-2.93997 -1.26554,-4.30456 -1.00625,-3.31262 -1.5368,-2.93997 -1.40317,-1.20271 -2.36802,-0.69642 -1.1733,-0.23902 h -3.60814 l -1.76666,0.47288 -1.77466,0.46256 -1.06508,0.60652 -0.96885,1.33634 -0.90604,2.19982 -1.09848,3.27921 -1.03567,3.37428 -0.40091,2.07134 -0.0708,1.83232 0.46772,3.60813 0.53853,2.71127 z"
         style="fill:#ffd42a;fill-opacity:1;stroke:none;stroke-width:0.26458332px;stroke-linecap:butt;stroke-linejoin:miter;stroke-opacity:1" />
      <path
         inkscape:export-ydpi="619.25409"
         inkscape:export-xdpi="619.25409"
         sodipodi:nodetypes="cssssscc"
         inkscape:connector-curvature="0"
         id="path4651-9-6-1-3"
         d="m 131.53292,127.57564 c -0.75391,0.19674 -0.9934,0.9138 -1.27132,1.3076 -0.34517,0.48909 -0.33456,1.45704 -0.33456,1.45704 0.0844,0.49246 0.11757,1.16078 0.33456,1.6812 0.20147,0.48322 0.53372,0.89181 0.86985,1.27025 0.17908,0.20163 0.51833,0.29163 0.76948,0.33624 0.29264,0.052 0.66912,-0.14944 0.66912,-0.14944 -0.86009,-2.02508 -1.06437,-3.97692 -1.03713,-5.90289 z"
         style="fill:#ffccaa;fill-opacity:1;stroke:none;stroke-width:0.27999023px;stroke-linecap:butt;stroke-linejoin:miter;stroke-opacity:1" />
      <path
         inkscape:export-ydpi="619.25409"
         inkscape:export-xdpi="619.25409"
         sodipodi:nodetypes="cssssscc"
         inkscape:connector-curvature="0"
         id="path4651-2-7-6-4-2"
         d="m 148.46638,127.58956 c 0.7539,0.19675 0.99338,0.91381 1.27131,1.3076 0.34517,0.48909 0.33456,1.45705 0.33456,1.45705 -0.0844,0.49245 -0.11757,1.16077 -0.33456,1.68121 -0.20148,0.4832 -0.53372,0.89179 -0.86985,1.27024 -0.17908,0.20162 -0.51834,0.29164 -0.76948,0.33623 -0.29263,0.052 -0.66911,-0.14943 -0.66911,-0.14943 0.86009,-2.02508 1.06436,-3.97691 1.03713,-5.9029 z"
         style="fill:#ffb380;fill-opacity:1;stroke:none;stroke-width:0.27999023px;stroke-linecap:butt;stroke-linejoin:miter;stroke-opacity:1" />
      <path
         inkscape:export-ydpi="619.25409"
         inkscape:export-xdpi="619.25409"
         sodipodi:nodetypes="csssccsssssssssssssssssssssssssssssssssssscsssssssssc"
         inkscape:connector-curvature="0"
         id="path3897"
         d="m 132.71159,132.71311 c 0,0 -1.39115,-0.33437 -1.88988,-0.8032 -0.33356,-0.31357 -0.51623,-0.78123 -0.61421,-1.22843 -0.10455,-0.47715 -0.10518,-1.53319 0.28111,-1.83215 0.69723,-0.5396 0.9659,-0.57982 0.9659,-0.57982 l 0.75931,-0.58416 c 0,0 0.34743,-1.70379 0.73401,-2.48452 0.29259,-0.59092 0.66659,-1.22205 1.14203,-1.67894 0.64738,-0.6221 1.47271,-1.05456 2.25976,-1.48661 0.6157,-0.33799 1.29478,-0.57529 1.98437,-0.70871 0.78918,-0.15269 1.60693,-0.13741 2.4096,-0.0945 0.54045,0.0289 1.0815,0.10428 1.6064,0.23623 0.58461,0.14696 1.17722,0.31566 1.70089,0.61422 0.70946,0.40449 1.39572,0.90895 1.88988,1.55915 0.49169,0.64695 0.54327,0.88462 0.90817,1.61115 0.22839,0.45473 0.30129,0.75474 0.50015,1.28377 0.0722,0.19221 0.18167,0.76864 0.64861,1.3492 0.28229,0.35099 0.60895,0.34344 0.91964,0.66957 0.3525,0.37003 0.71678,0.7824 0.85044,1.27567 0.14029,0.51772 0.12525,1.11708 -0.0945,1.6064 -0.2281,0.50794 -0.6801,0.93835 -1.18118,1.18117 -0.24259,0.11756 -0.76402,-0.1722 -0.80319,0.0945 -0.14555,0.99076 -0.42554,1.5725 -0.83661,2.29553 -0.34785,0.61182 -0.79764,1.22082 -1.33676,1.67322 -0.71382,0.59901 -1.56131,1.03171 -2.4096,1.41741 -0.63471,0.28859 -1.2928,0.57274 -1.98437,0.66146 -0.46967,0.0602 -1.04336,0.0684 -1.5119,-1e-5 -0.35159,-0.0513 -0.66288,-0.11469 -0.94494,-0.33072 -0.24049,-0.18422 -0.39369,-0.50191 -0.42523,-0.8032 -0.0239,-0.22806 0.0494,-0.47951 0.18899,-0.66146 0.22357,-0.29145 0.59453,-0.45678 0.94494,-0.56696 0.43673,-0.13732 0.91854,-0.16949 1.37017,-0.0945 0.39748,0.066 0.48492,0.0531 0.72051,0.17719 0.18973,0.0999 0.52539,0.27565 0.50791,0.7205 -0.0193,0.4914 -0.46868,0.5607 -0.28348,0.75596 0.43188,0.45535 1.30172,-0.25733 1.86625,-0.53153 0.75442,-0.36643 1.44739,-0.82905 2.008,-1.45285 0.66878,-0.74417 1.0571,-1.71243 1.41741,-2.64583 0.23384,-0.60578 0.40638,-1.2439 0.47247,-1.88988 0.11711,-1.14468 0.007,-2.30808 -0.14174,-3.44904 -0.0752,-0.5759 -0.43984,-1.45831 -0.64525,-2.00157 -0.54163,-1.43253 -0.57899,-1.51427 -1.45556,-2.41197 -0.29728,-0.30444 -1.0256,-0.83661 -1.0256,-0.83661 0,0 -1.0564,-0.56685 -1.63408,-0.77552 -0.6044,-0.21833 -1.20226,-0.24588 -1.84263,-0.29969 -0.6015,-0.0505 -1.40595,0.008 -1.99584,0.136 -0.57935,0.12572 -1.16041,0.27611 -1.70089,0.51972 -0.74121,0.33409 -1.45825,0.75047 -2.07887,1.27567 -0.49422,0.41824 -0.94689,0.90692 -1.27567,1.46466 -0.28083,0.4764 -0.41,1.02888 -0.56696,1.55915 -0.17892,0.60443 -0.37895,1.21399 -0.42523,1.84264 -0.058,0.78783 0.02,1.50557 0.022,2.29553 0.002,0.63173 0.0253,1.95671 0.0253,1.95671 z"
         style="fill:#000000;stroke:none;stroke-width:0.26458332px;stroke-linecap:butt;stroke-linejoin:miter;stroke-opacity:1" />
      <path
         inkscape:export-ydpi="619.25409"
         inkscape:export-xdpi="619.25409"
         sodipodi:nodetypes="ccccccccc"
         inkscape:connector-curvature="0"
         id="path4542-91-1-5-8-0"
         d="m 139.77619,142.32212 0.0668,15.10072 13.8312,-0.0668 -0.13363,-11.35897 c -0.0339,-1.70336 -0.94796,-2.52653 -2.40543,-2.80632 l -4.40996,-1.06908 -1.5368,-0.13363 -0.86862,-1.40317 z"
         style="fill:#7f2aff;fill-opacity:1;stroke:none;stroke-width:0.26458332px;stroke-linecap:butt;stroke-linejoin:miter;stroke-opacity:1" />
      <path
         inkscape:export-ydpi="619.25409"
         inkscape:export-xdpi="619.25409"
         sodipodi:nodetypes="ccccc"
         inkscape:connector-curvature="0"
         id="path4544-2-9-0-9-6"
         d="m 145.18837,141.98804 -2.07131,4.20949 -3.34087,-3.87541 4.54356,-1.73725 z"
         style="fill:#cccccc;fill-opacity:1;stroke:none;stroke-width:0.26458332px;stroke-linecap:butt;stroke-linejoin:miter;stroke-opacity:1" />
      <path
         inkscape:export-ydpi="619.25409"
         inkscape:export-xdpi="619.25409"
         sodipodi:nodetypes="ccccc"
         inkscape:connector-curvature="0"
         id="path4546-72-3-2-3-6"
         d="m 139.70939,157.42284 0.10158,-15.10072 3.30609,3.87541 -0.21425,11.21113 z"
         style="fill:#e6e6e6;fill-opacity:1;stroke:none;stroke-width:0.26458332px;stroke-linecap:butt;stroke-linejoin:miter;stroke-opacity:1" />
      <path
         inkscape:export-ydpi="619.25409"
         inkscape:export-xdpi="619.25409"
         sodipodi:nodetypes="cccccccc"
         inkscape:connector-curvature="0"
         id="path4581-5-8-1-0-3-5"
         d="m 146.72513,142.12168 -0.0882,1.75739 -1.26953,0.4009 3.44109,0.90204 -5.90568,12.22665 0.21425,-11.21113 2.07131,-4.20948 z"
         style="fill:#442178;fill-opacity:1;stroke:none;stroke-width:0.26458332px;stroke-linecap:butt;stroke-linejoin:miter;stroke-opacity:1" />
    </g>
  </g>
</svg>
